<svg width="20" height="20" viewBox="0 0 20 20" fill="none" xmlns="http://www.w3.org/2000/svg">
<path d="M5.88091 0C2.65273 0 0 2.64909 0 5.88091V14.1191C0 17.3473 2.64909 20 5.88091 20H14.1191C17.3473 20 20 17.3509 20 14.1191V5.88182C20 2.65273 17.3509 0 14.1191 0H5.88091ZM5.88091 1.81818H14.1191C14.6528 1.81746 15.1814 1.92206 15.6747 2.12598C16.1679 2.32989 16.6161 2.62912 16.9935 3.00653C17.3709 3.38393 17.6701 3.83208 17.874 4.32532C18.0779 4.81856 18.1825 5.34718 18.1818 5.88091V14.1191C18.1825 14.6528 18.0779 15.1814 17.874 15.6747C17.6701 16.1679 17.3709 16.6161 16.9935 16.9935C16.6161 17.3709 16.1679 17.6701 15.6747 17.874C15.1814 18.0779 14.6528 18.1825 14.1191 18.1818H5.88182C5.34802 18.1827 4.81929 18.0781 4.32595 17.8743C3.83261 17.6704 3.38435 17.3712 3.00685 16.9938C2.62935 16.6164 2.33004 16.1682 2.12606 15.6749C1.92209 15.1816 1.81746 14.6529 1.81818 14.1191V5.88182C1.81734 5.34802 1.92185 4.81929 2.12571 4.32595C2.32958 3.83261 2.62879 3.38435 3.0062 3.00685C3.38362 2.62935 3.83181 2.33004 4.32511 2.12606C4.81841 1.92209 5.34711 1.81746 5.88091 1.81818ZM15.3691 3.80727C15.2608 3.80679 15.1535 3.82777 15.0533 3.86899C14.9532 3.91021 14.8622 3.97086 14.7856 4.04744C14.709 4.12401 14.6484 4.215 14.6072 4.31515C14.5659 4.41529 14.545 4.52261 14.5455 4.63091C14.5455 5.08909 14.9109 5.45455 15.3691 5.45455C15.4775 5.45515 15.5849 5.43426 15.6851 5.39309C15.7854 5.35193 15.8765 5.2913 15.9532 5.2147C16.0298 5.13812 16.0906 5.04709 16.1318 4.94688C16.1731 4.84668 16.1941 4.73928 16.1936 4.63091C16.1941 4.52254 16.1731 4.41514 16.1318 4.31494C16.0906 4.21473 16.0298 4.1237 15.9532 4.04711C15.8765 3.97052 15.7854 3.90989 15.6851 3.86872C15.5849 3.82756 15.4775 3.80667 15.3691 3.80727ZM10 4.54545C7 4.54545 4.54545 7 4.54545 10C4.54545 13 7 15.4545 10 15.4545C13 15.4545 15.4545 13 15.4545 10C15.4545 7 13 4.54545 10 4.54545ZM10 6.36364C12.0209 6.36364 13.6364 7.97909 13.6364 10C13.6364 12.0209 12.0209 13.6364 10 13.6364C7.97909 13.6364 6.36364 12.0209 6.36364 10C6.36364 7.97909 7.97909 6.36364 10 6.36364Z" fill="black"/>
</svg>
