<svg width="48" height="48" viewBox="0 0 48 48" fill="none" xmlns="http://www.w3.org/2000/svg">
<path d="M24 0L25.4341 14.9457L31.4164 1.17464L28.1618 15.832L38.1068 4.58359L30.4822 17.5178L43.4164 9.89315L32.168 19.8382L46.8254 16.5836L33.0543 22.5659L48 24L33.0543 25.4341L46.8254 31.4164L32.168 28.1618L43.4164 38.1068L30.4822 30.4822L38.1068 43.4164L28.1618 32.168L31.4164 46.8254L25.4341 33.0543L24 48L22.5659 33.0543L16.5836 46.8254L19.8382 32.168L9.89315 43.4164L17.5178 30.4822L4.58359 38.1068L15.832 28.1618L1.17464 31.4164L14.9457 25.4341L0 24L14.9457 22.5659L1.17464 16.5836L15.832 19.8382L4.58359 9.89315L17.5178 17.5178L9.89315 4.58359L19.8382 15.832L16.5836 1.17464L22.5659 14.9457L24 0Z" fill="black"/>
</svg>
